<svg width="1440" height="22" viewBox="0 0 1440 22" fill="none" xmlns="http://www.w3.org/2000/svg">
<path d="M15.551 19.6396C18.8127 18.1378 36.0755 14.5034 38.4433 18.019C40.2868 17.5012 56.2497 6.06677 66.7497 9.10808C69.5315 8.52464 82.9766 7.82371 85.5754 7.28294C86.7605 7.50955 113.031 5.30161 113.031 5.0882C113.031 4.31864 135.56 8.49208 135.56 7.3111C135.56 4.8308 155.836 10.3529 155.836 10.1245C155.836 9.97753 180.561 9.578 180.561 9.98985C180.561 10.1271 203.418 10.3326 203.418 10.5799C203.418 9.98985 226.746 11.9091 226.746 12.4503C226.746 12.4794 248.735 9.5758 248.735 9.30388C248.735 12.5172 273.586 10.6873 273.586 10.4989C273.586 10.4488 296.664 8.51407 296.664 9.57844C296.664 9.32412 317.543 7.62439 317.543 7.27898C317.543 6.8887 341.751 4.17168 341.751 6.35938C341.751 7.84879 364.974 2.41386 364.974 3.47867C364.974 3.92835 392.297 6.97142 392.297 5.38169C392.297 4.98744 414.156 3.41927 414.156 4.67548C414.156 6.81654 436.104 2.2823 436.104 2.96122C436.104 3.37351 458.324 5.14717 458.324 4.49684C458.324 5.97657 480.731 1.21001 480.731 3.02899C480.731 3.18123 502.866 3.33743 502.866 3.64323C502.866 4.69088 524.403 4.33008 524.403 5.22549C524.403 5.65493 546.273 4.96588 546.273 5.68529C546.273 4.83212 569.219 4.92628 569.219 4.7208C569.219 6.09845 591.252 5.95193 591.252 5.17664C591.252 4.30984 613.104 7.0493 613.104 5.81201C613.104 6.61854 633.66 7.44003 633.66 7.50031C633.66 7.70095 655.254 9.0544 655.254 8.19947C655.254 9.556 675.858 10.0862 675.858 9.89349C675.858 10.1839 698.31 9.64312 698.31 10.3194C698.31 8.78732 721.935 11.2777 721.935 10.0959C721.935 10.8971 741.718 11.4656 741.718 12.1995C741.718 10.3203 767.364 11.639 767.364 10.8188C767.364 11.063 789.567 9.85829 789.567 11.4427C789.567 9.06276 808.419 12.8776 808.419 14.1342C808.419 16.7866 830.728 14.253 830.728 14.7067C830.728 15.1401 854.738 11.518 854.738 13.9728C854.738 14.8176 875.157 17.6195 875.157 15.8617C875.157 15.8951 897.225 17.2169 897.225 16.5217C897.225 13.9934 920.127 18.1493 920.127 16.1121C920.127 16.0223 940.806 18.3904 940.806 19.5225C940.806 21.965 964.258 18.7565 964.258 17.2952C964.258 17.7612 987.034 18.3253 987.034 19.6048C987.034 18.7098 1009.58 18.7252 1009.58 18.2993C1009.58 16.8134 1032.38 18.804 1032.38 18.0525C1032.38 16.3681 1054.24 16.3774 1054.24 16.2709C1054.24 17.4365 1077.68 15.4877 1077.68 14.9518C1077.68 15.3623 1101.73 15.6025 1101.73 16.2603C1101.73 16.3813 1127.19 15.8947 1127.19 17.8844C1127.19 20.4307 1152.53 19.3659 1152.53 18.9747C1152.53 17.1166 1169.54 20.0783 1169.54 20.4883C1169.54 21.9272 1188.88 22.6813 1188.88 21.1769C1188.88 17.0286 1207.14 19.662 1207.14 19.3113C1207.14 18.1739 1230.74 20.8474 1230.74 21.0669C1230.74 23.0483 1251.41 19.3052 1251.41 17.8439C1251.41 17.2829 1275.42 19.2568 1275.42 20.2991C1275.42 18.412 1300.24 20.4721 1297.14 18.8418C1298.14 19.4843 1321.12 19.9119 1319.87 18.9611C1321.69 19.3338 1338.68 17.8162 1341.87 18.7644C1336.87 15.7587 1359.09 17.6376 1365.08 19.2524C1365.65 18.6474 1385.62 18.0947 1386.98 18.1202C1382.85 17.565 1412.62 16.8869 1408.79 16.8583C1410.32 16.6819 1431.39 15.6716 1431.21 15.7768C1431.56 17.1192 1435.53 17.8694 1440 18.2043V-5.96046e-07L-0.00028038 -5.96047e-07V18.1559C3.77303 17.9715 11.4079 18.2289 15.551 19.6396Z" fill="white"/>
</svg>
