<svg width="1441" height="16" viewBox="0 0 1441 16" fill="none" xmlns="http://www.w3.org/2000/svg">
<path d="M17 12.42C20.2617 10.3721 34.1322 5.13713 36.5 9.93117C38.3435 9.22496 57.5 5.7839 68 9.93114C70.7817 9.13553 83.4769 10.6685 86.0756 9.93114C87.2606 10.2401 113.532 7.22931 113.532 6.93831C113.532 5.8889 136.06 11.58 136.06 9.96954C136.06 6.58731 156.5 10.2425 156.5 9.93114C156.5 9.73074 180.089 6.77325 182 9.93114C183.439 12.3088 202.082 8.573 204.5 9.49999C204.5 8.69538 228 11.262 228 12C229.254 11.0224 249.5 9.8708 249.5 9.5C249.5 13.8818 274.5 11.5 274.5 11.5C274.5 11.5 297.5 8.54859 297.5 10C297.5 9.6532 318.043 10.3967 318.043 9.92574C318.043 9.39353 342.252 5.6885 342.252 8.67173C342.252 10.7027 365.474 3.29148 365.474 4.74349C365.474 5.35669 392.797 9.50633 392.797 7.33851C392.797 6.80091 414.657 4.66249 414.657 6.3755C414.657 9.29513 436.605 3.11208 436.605 4.03788C436.605 4.60009 458.824 7.01871 458.824 6.13191C458.824 8.14972 481.231 1.64986 481.231 4.13028C481.231 4.33789 503.366 4.55089 503.366 4.96789C503.366 6.3965 524.903 5.9045 524.903 7.12551C524.903 7.71112 546.774 6.77151 546.774 7.75252C546.774 6.58911 569.719 6.71751 569.719 6.43731C569.719 8.31592 591.752 8.11612 591.752 7.05891C591.752 5.8769 613.605 9.61253 613.605 7.92532C613.605 9.02513 634.84 4.77234 634.5 6.99994C634.5 7.27354 655.5 8.16575 655.5 6.99994C655.5 8.84975 676.5 8.76274 676.5 8.49994C676.5 8.89594 698.5 9.07768 698.5 9.99989C698.5 7.91067 722.5 10.6115 722.5 8.99989C722.5 10.0925 742.5 9.99908 742.5 10.9999C742.5 8.43727 768.5 13.6183 768.5 12.4999C768.5 12.8329 790 10.8392 790 12.9998C790 9.75442 810.5 10.3409 810.5 12.0545C810.5 15.6714 829.5 12.4428 829.5 13.0614C829.5 13.6524 858.5 7.65242 858.5 10.9998C858.5 12.1519 875 15.3969 875 12.9998C890.5 10.9998 900 12.9479 900 11.9998C900 8.55222 922.5 15.7779 922.5 12.9998C922.5 11.5289 948.5 9.45603 948.5 10.9998C960 7.99985 966 13.9925 966 11.9998C966 12.6353 989.5 10.255 989.5 11.9998C989.5 10.7794 1011.5 9.68962 1011.5 13.9998C1011.5 11.9736 1034.5 13.0247 1034.5 11.9998C1034.5 9.70303 1056.5 10.645 1056.5 10.4998C1056.5 12.0893 1080.32 9.11106 1079.5 11.9998C1091 8.49985 1107 11.1028 1107 11.9998C1107 16.2145 1132.81 5.81006 1136.5 12.8876C1136.5 12.8876 1148 10.8876 1155.5 12.8876C1165 9.99985 1167.5 9.38785 1179 13.8878C1180.83 14.6027 1190 14.0513 1190 11.9998C1190 6.343 1211.5 12.4781 1211.5 11.9998C1211.5 10.4488 1237 9.49983 1234.5 11.9998C1234.5 14.7017 1253 13.9925 1253 11.9998C1253 10.0072 1277 10.5784 1277 11.9998C1277 9.42642 1300.6 13.2228 1297.5 10.9998C1298.51 11.8758 1320.75 15.7964 1319.5 14.4998C1321.32 15.008 1334.81 9.70681 1338 10.9998C1333 6.90118 1361.51 13.1324 1367.5 15.3344C1368.06 14.5094 1386.63 14.465 1388 14.4998C1383.86 13.7426 1411.32 12.0388 1407.5 11.9998C1409.03 11.7592 1429.68 11.4998 1429 14.4998C1429 7.99982 1436.03 15.0432 1440.5 15.4998V-0.000149757L0.499964 -0.000149757V9.93116C4.27321 9.67976 12.857 10.4963 17 12.42Z" fill="#24272B"/>
</svg>
