<svg width="941" height="900" viewBox="0 0 941 900" fill="none" xmlns="http://www.w3.org/2000/svg">
<circle cx="450" cy="450" r="450" fill="white"/>
<path d="M119.201 315.171C125.601 301.971 118.001 286.104 103.201 282.904C85.401 279.104 77.7343 292.171 71.1343 306.704C66.7788 316.26 62.8454 316.082 59.3343 306.171C51.601 284.127 57.4676 266.371 76.9343 252.904C94.4899 240.771 113.912 241.038 135.201 253.704C248.001 321.038 241.468 477.371 195.001 582.371C169.001 641.104 136.868 697.571 122.801 761.571C121.912 765.704 120.068 766.171 117.268 762.971C6.1343 634.038 -27.3324 465.371 22.5343 302.838C24.0454 297.815 25.9121 297.682 28.1343 302.438C37.7788 323.149 52.3565 335.193 71.8676 338.571C94.001 342.393 109.779 334.593 119.201 315.171ZM139.601 323.638C132.534 343.504 121.934 367.838 102.134 376.771C84.7343 384.638 65.201 376.638 48.801 369.838C47.5763 369.337 46.2406 369.172 44.9308 369.357C43.6209 369.543 42.3839 370.073 41.3462 370.893C40.3086 371.714 39.5076 372.796 39.0252 374.028C38.5429 375.259 38.3965 376.597 38.601 377.904C41.4454 395.327 50.6454 408.682 66.201 417.971C93.2676 434.104 128.534 412.904 141.534 387.771C151.668 368.171 154.201 346.993 149.134 324.238C146.645 312.993 143.468 312.793 139.601 323.638ZM174.201 369.038C171.179 398.86 156.512 422.038 130.201 438.571C108.734 452.127 88.5121 461.793 69.5343 467.571C45.601 474.971 56.7343 512.704 68.0676 523.771C78.401 533.771 99.6676 529.771 111.001 523.838C166.068 494.971 184.201 427.971 176.601 368.971C175.712 362.038 174.912 362.06 174.201 369.038ZM116.668 669.438C162.201 588.638 213.601 524.971 201.201 425.904C199.645 413.327 198.245 413.349 197.001 425.971C193.134 465.082 176.423 501.615 146.868 535.571C104.868 583.904 48.5343 630.104 101.401 698.238C101.782 698.727 102.295 699.095 102.881 699.297C103.466 699.5 104.099 699.53 104.707 699.383C105.315 699.237 105.872 698.919 106.313 698.469C106.755 698.018 107.063 697.452 107.201 696.838C109.512 685.682 112.668 676.549 116.668 669.438Z" fill="#B21B24"/>
<path d="M325.61 840.368C315.927 849.287 306.777 858.796 298.16 868.893C296.561 870.786 294.496 871.544 291.964 871.165C284.991 870.197 278.195 867.967 271.577 864.475C268.423 862.793 268.445 861.11 271.643 859.427C295.229 847.226 311.552 830.523 320.613 809.319C324.255 800.737 321.701 798.486 312.951 802.567C273.309 820.994 244.66 825.412 204.752 803.64C194.958 798.339 183.899 798.528 175.704 806.479C173.616 808.457 171.44 808.562 169.174 806.795C158.825 798.801 148.61 790.219 138.527 781.047C134.974 777.85 133.441 773.853 133.93 769.056C141.303 695.725 179.435 648.226 248.325 626.559C297.894 610.908 357.789 619.428 389.436 660.827C390.404 662.097 391.031 663.572 391.262 665.123C391.494 666.673 391.323 668.252 390.764 669.722C390.205 671.191 389.276 672.506 388.057 673.552C386.839 674.597 385.368 675.342 383.773 675.72L356.923 682.157C352.994 683.088 349.576 685.38 347.343 688.581C345.111 691.782 344.226 695.66 344.864 699.449C351.86 741.226 420.15 722.167 421.083 684.303C422.216 636.088 383.84 606.68 337.469 597.025C285.635 586.233 228.67 593.364 189.895 625.486C186.341 628.431 182.566 631.04 178.569 633.312C174.838 635.415 173.971 634.637 175.97 630.977C199.755 586.486 220.942 549.441 233.068 495.736C252.122 411.046 233.001 295.306 147.455 247.786C112.721 228.475 78.3426 227.255 44.3195 244.126C40.8994 245.808 40.1221 245.051 41.9876 241.854C94.1771 151.273 168.02 84.7783 263.515 42.3698C536.944 -78.9865 862.273 71.5887 929.097 350.841C957.613 469.988 934.694 598.287 862.473 700.269C796.603 793.416 705.327 856.124 588.644 888.393C588.214 888.503 587.76 888.502 587.33 888.392C586.9 888.282 586.51 888.067 586.203 887.769C585.895 887.471 585.681 887.102 585.583 886.7C585.485 886.299 585.507 885.881 585.646 885.49C591.176 869.65 596.706 852.611 595.374 835.698C591.376 785.633 571.122 745.77 534.612 716.109C514.358 699.617 491.106 693.853 464.855 698.817C431.632 705.128 419.173 724.565 427.479 757.129C433.742 781.867 474.982 786.979 473.317 754.983C472.873 747.242 471.851 739.669 470.252 732.265C469.948 730.893 470.017 729.472 470.453 728.132C470.888 726.793 471.676 725.581 472.741 724.61C473.807 723.638 475.116 722.939 476.545 722.578C477.974 722.217 479.477 722.206 480.912 722.546C500.766 727.258 518.466 737.986 534.012 754.731C568.057 791.523 572.788 844.723 559.529 890.35C559.108 891.781 558.255 893.067 557.073 894.052C555.89 895.038 554.43 895.68 552.867 895.903L523.685 899.753C520.754 900.173 518.777 899.059 517.756 896.408C514.025 886.605 506.696 880.484 495.769 878.044C456.994 869.335 422.149 866.747 409.69 824.023C409.43 823.158 408.922 822.379 408.222 821.771C407.522 821.163 406.658 820.751 405.726 820.581C404.794 820.411 403.83 820.49 402.942 820.808C402.054 821.126 401.276 821.671 400.696 822.383C385.439 841.63 394.7 876.592 405.892 895.083C408.247 898.995 407.07 900.573 402.361 899.816L377.577 895.777C373.269 895.062 370.692 892.664 369.848 888.583C366.584 872.301 367.783 855.64 369.315 839.737C370.204 830.86 367.139 829.388 360.121 835.32C346.663 846.763 337.025 861.404 331.206 879.243C329.918 883.197 327.209 884.523 323.078 883.219L313.351 880.252C309.131 878.948 308.109 876.487 310.286 872.869C316.504 862.393 322.278 852.043 327.608 841.82C329.785 837.613 329.118 837.129 325.61 840.368ZM720.695 502.237C720.117 512.544 718.141 512.797 714.765 502.994C697.909 454.085 643.343 443.736 620.957 400.57C619.71 398.13 619.427 395.333 620.158 392.681C622.29 384.982 630.885 377.283 630.152 369.773C629.352 361.506 621.091 359.739 613.895 361.822C583.847 370.278 550.202 366.681 518.422 361.695C495.192 358.077 490.639 365.187 504.764 383.026L510.36 390.22C511.623 391.798 512.54 393.6 513.057 395.52C513.574 397.44 513.68 399.44 513.37 401.403C513.06 403.366 512.339 405.252 511.251 406.951C510.162 408.65 508.727 410.128 507.029 411.298C487.486 424.803 468.831 425.413 451.064 413.128C427.479 396.72 429.744 346.676 436.34 323.705C441.603 305.214 458.993 303.258 473.783 312.534C486.175 320.36 498.368 327.365 510.36 333.549C536.077 346.802 572.721 341.564 586.979 315.564C592.575 305.34 594.241 292.571 591.976 277.257C591.532 274.354 590.021 273.723 587.445 275.364C538.809 306.665 513.691 243.936 469.919 265.014C456.461 271.493 444.868 279.866 435.141 290.131C434.858 290.445 434.483 290.672 434.063 290.783C433.644 290.895 433.199 290.886 432.785 290.757C432.371 290.629 432.006 290.387 431.738 290.062C431.469 289.737 431.309 289.344 431.277 288.932C429.011 261.859 427.745 201.023 463.59 192.945C494.104 186.003 513.158 214.654 510.827 240.655C510.427 245.198 512.359 246.418 516.623 244.315C541.541 232.114 564.615 225.53 585.846 224.562C590.288 224.352 591.62 222.311 589.844 218.441C567.658 169.911 502.032 163.915 454.729 173.255C413.288 181.459 370.182 191.809 329.674 177.357C322.345 174.707 316.215 178.241 314.616 185.246C314.368 186.239 314.377 187.275 314.644 188.265C314.911 189.254 315.427 190.167 316.149 190.926C332.849 209.185 342.554 235.711 345.264 270.505C349.661 326.923 352.859 381.827 317.481 424.929C315.838 426.949 315.993 428.842 317.948 430.609L325.343 437.362C327.253 439.129 329.407 439.423 331.806 438.245C367.517 420.26 412.089 431.556 450.598 440.202C473.783 445.376 499.234 445.44 522.219 442.158C522.927 442.051 523.649 442.083 524.343 442.25C525.037 442.417 525.688 442.716 526.255 443.13C526.823 443.543 527.295 444.062 527.644 444.655C527.992 445.247 528.21 445.901 528.282 446.575C532.413 484.861 531.858 522.789 526.617 560.359C523.907 579.796 515.135 594.29 500.3 603.84C497.591 605.607 496.769 607.942 497.835 610.845L502.032 622.268C503.009 624.876 504.897 625.76 507.695 624.918C537.277 615.831 565.281 615.768 591.709 624.729C596.462 626.328 599.349 624.792 600.37 620.122L601.703 614.505C602.636 610.34 601.103 607.29 597.106 605.355C579.428 596.898 568.435 582.699 564.126 562.757C557.42 531.666 555.821 498.913 559.329 464.498C559.818 459.618 561.395 459.281 564.06 463.488C584.758 495.842 613.673 524.829 650.805 550.451C661.821 558.066 670.837 567.932 677.855 580.049C679.321 582.573 679.587 585.223 678.655 588C675.723 596.499 669.86 603.335 661.066 608.51C660.075 609.092 659.287 609.94 658.801 610.951C658.315 611.961 658.153 613.087 658.334 614.19C659.134 619.112 661.665 622.604 665.929 624.666C667.795 625.591 669.727 625.76 671.726 625.171C704.638 615.873 735.463 615.473 764.201 623.972C766.91 624.771 768.798 623.93 769.864 621.447L775.194 609.331C776.438 606.512 775.705 604.303 772.995 602.704C749.743 589.01 748.144 552.344 747.411 527.606C746.39 496.136 746.745 466.391 748.477 438.371C750.299 409.174 761.913 387.927 783.322 374.633C785.543 373.244 786.165 371.393 785.188 369.079C782.301 362.179 777.015 359.487 769.331 361.001C741.393 366.597 714.876 366.471 689.781 360.623C688.138 360.244 686.65 360.538 685.317 361.506C679.987 365.229 680.254 372.424 685.184 376.652C721.828 407.449 723.093 459.197 720.695 502.237ZM326.875 733.969C303.823 721.347 313.95 691.623 321.279 673.701C324.81 665.118 321.012 655.904 313.417 650.603C299.959 641.221 285.968 641.452 271.444 651.297C222.474 684.555 280.371 749.43 324.344 745.075C337.225 743.813 338.068 740.111 326.875 733.969ZM317.015 761.042C265.314 765.838 253.055 731.823 228.537 699.575C212.347 678.181 188.163 694.842 180.967 713.269C170.707 739.774 189.029 767.163 213.48 779.343C242.395 793.732 273.065 794.194 305.489 780.731C312.995 777.618 318.103 772.633 320.813 765.775C321.03 765.212 321.096 764.605 321.003 764.012C320.91 763.419 320.662 762.86 320.282 762.386C319.902 761.913 319.403 761.541 318.831 761.305C318.259 761.07 317.634 760.98 317.015 761.042ZM354.725 767.416C353.126 763.04 351.282 758.917 349.195 755.047C348.8 754.308 348.187 753.693 347.431 753.276C346.675 752.86 345.808 752.66 344.934 752.7C344.061 752.74 343.218 753.018 342.508 753.502C341.798 753.986 341.251 754.654 340.933 755.425C323.344 798.591 398.83 824.844 407.292 794.426C408.136 791.481 406.936 790.134 403.694 790.387C381.108 792.091 363.119 790.639 354.725 767.416ZM497.368 786.222C478.314 802.504 449.798 822.824 426.413 798.528C426.034 798.135 425.538 797.859 424.991 797.737C424.444 797.614 423.87 797.651 423.345 797.841C422.82 798.032 422.368 798.368 422.048 798.806C421.728 799.243 421.554 799.762 421.549 800.295C421.083 843.524 501.832 878.99 529.348 835.067C541.807 815.125 534.678 788.809 508.495 783.445C506.536 783.036 504.504 783.074 502.569 783.557C500.634 784.04 498.851 784.954 497.368 786.222Z" fill="#B21B24"/>
</svg>
