<svg width="1920" height="50" viewBox="0 0 1920 50" fill="none" xmlns="http://www.w3.org/2000/svg">
<path d="M20.736 44.636C25.084 41.223 48.101 32.962 51.259 40.953C53.716 39.775 75 13.789 89 20.7C92.709 19.374 110.636 17.781 114.101 16.552C115.681 17.067 150.709 12.049 150.709 11.564C150.709 9.815 180.748 19.301 180.748 16.616C180.748 10.98 207.783 23.529 207.783 23.01C207.783 22.677 240.749 21.767 240.749 22.704C240.749 23.017 271.225 23.484 271.225 24.046C271.225 22.704 302.33 27.067 302.33 28.297C302.33 28.363 331.649 21.764 331.649 21.145C331.649 28.449 364.783 24.291 364.783 23.861C364.783 23.746 395.554 19.35 395.554 21.77C395.554 21.191 423.393 17.329 423.393 16.544C423.393 15.658 455.672 9.482 455.672 14.455C455.672 17.839 486.635 5.488 486.635 7.908C486.635 8.93 523.065 15.847 523.065 12.234C523.065 11.338 552.211 7.773 552.211 10.628C552.211 15.494 581.474 5.19 581.474 6.732C581.474 7.669 611.1 11.699 611.1 10.222C611.1 13.585 640.975 2.753 640.975 6.887C640.975 7.233 670.488 7.589 670.488 8.282C670.488 10.663 699.204 9.843 699.204 11.878C699.204 12.854 728.365 11.288 728.365 12.923C728.365 10.983 758.958 11.198 758.958 10.73C758.958 13.861 788.335 13.528 788.335 11.767C788.335 9.797 817.472 16.023 817.472 13.211C817.472 15.044 844.879 16.912 844.879 17.048C844.879 17.503 873.671 20.58 873.671 18.636C873.671 21.719 901.142 22.924 901.142 22.486C901.142 23.146 931.079 21.917 931.079 23.454C931.079 19.971 962.579 25.632 962.579 22.947C962.579 24.768 988.958 26.06 988.958 27.729C988.958 23.456 1023.15 26.455 1023.15 24.59C1023.15 25.145 1052.76 22.407 1052.76 26.009C1052.76 20.6 1077.89 29.27 1077.89 32.126C1077.89 38.153 1107.64 32.397 1107.64 33.427C1107.64 34.412 1139.65 26.18 1139.65 31.759C1139.65 33.679 1166.88 40.047 1166.88 36.053C1166.88 36.127 1196.3 39.132 1196.3 37.553C1196.3 31.807 1226.83 41.252 1226.83 36.622C1226.83 36.419 1254.41 41.8 1254.41 44.373C1254.41 49.924 1285.68 42.632 1285.68 39.311C1285.68 40.37 1316.05 41.652 1316.05 44.56C1316.05 42.526 1346.1 42.561 1346.1 41.592C1346.1 38.216 1376.51 42.74 1376.51 41.032C1376.51 37.204 1405.65 37.224 1405.65 36.982C1405.65 39.63 1436.91 35.202 1436.91 33.984C1436.91 34.917 1468.97 35.463 1468.97 36.958C1468.97 37.232 1502.93 36.126 1502.93 40.649C1502.93 46.436 1536.71 44.015 1536.71 43.127C1536.71 38.903 1559.39 45.634 1559.39 46.566C1559.39 49.837 1585.17 51.55 1585.17 48.131C1585.17 38.703 1609.52 44.688 1609.52 43.891C1609.52 41.306 1640.98 47.382 1640.98 47.88C1640.98 52.385 1668.55 43.877 1668.55 40.556C1668.55 39.281 1700.56 43.767 1700.56 46.136C1700.56 41.847 1733.65 46.53 1729.51 42.824C1730.86 44.285 1761.49 45.258 1759.82 43.095C1762.25 43.943 1784.91 40.494 1789.16 42.649C1782.49 35.818 1812.12 40.087 1820.11 43.758C1820.87 42.382 1847.49 41.126 1849.31 41.184C1843.8 39.922 1883.49 38.38 1878.4 38.316C1880.44 37.916 1908.52 35.62 1908.28 35.858C1908.75 38.91 1914.05 40.615 1920 41.376V0H0V41.263C5.031 40.845 15.21 41.43 20.736 44.636Z" fill="white"/>
</svg>
