<svg width="80" height="80" viewBox="0 0 80 80" fill="none" xmlns="http://www.w3.org/2000/svg">
<path d="M61.5035 44.6434C61.4551 45.5596 61.2891 45.582 61.0057 44.7107C59.5905 40.3632 55.0092 39.4433 53.1297 35.6063C53.025 35.3894 53.0012 35.1408 53.0626 34.9051C53.2416 34.2208 53.9632 33.5364 53.9016 32.8688C53.8345 32.134 53.1409 31.9769 52.5368 32.162C50.014 32.9137 47.1891 32.594 44.5209 32.1508C42.5706 31.8292 42.1883 32.4612 43.3742 34.0469L43.8441 34.6863C43.9501 34.8266 44.0271 34.9868 44.0705 35.1575C44.1139 35.3281 44.1228 35.5059 44.0968 35.6804C44.0707 35.8548 44.0102 36.0225 43.9188 36.1735C43.8274 36.3245 43.7069 36.4559 43.5644 36.5599C41.9235 37.7604 40.3573 37.8146 38.8656 36.7226C36.8854 35.2641 37.0756 30.8157 37.6294 28.7738C38.0713 27.1302 39.5313 26.9563 40.7731 27.7809C41.8135 28.4765 42.8372 29.0992 43.8441 29.6489C46.0033 30.827 49.0798 30.3614 50.2769 28.0502C50.7468 27.1415 50.8866 26.0064 50.6964 24.6452C50.6591 24.3871 50.5323 24.3311 50.316 24.4769C46.2326 27.2593 44.1238 21.6833 40.4487 23.5569C39.3187 24.1328 38.3454 24.8771 37.5287 25.7895C37.505 25.8174 37.4735 25.8376 37.4383 25.8475C37.403 25.8574 37.3657 25.8566 37.3309 25.8452C37.2961 25.8338 37.2656 25.8123 37.243 25.7834C37.2205 25.7545 37.207 25.7195 37.2043 25.683C37.0141 23.2765 36.9078 17.8688 39.9173 17.1508C42.4792 16.5337 44.079 19.0805 43.8832 21.3916C43.8497 21.7955 44.0119 21.904 44.3699 21.717C46.4619 20.6325 48.3992 20.0472 50.1818 19.9612C50.5547 19.9425 50.6666 19.7611 50.5174 19.4171C48.6547 15.1033 43.1448 14.5704 39.1733 15.4006C35.694 16.1298 32.0748 17.0498 28.6738 15.7652C28.0585 15.5296 27.5439 15.8437 27.4096 16.4664C27.3887 16.5547 27.3895 16.6468 27.4119 16.7347C27.4344 16.8227 27.4777 16.9038 27.5383 16.9713C28.9404 18.5943 29.7553 20.9522 29.9827 24.045C30.3519 29.0599 30.6204 33.9403 27.6502 37.7716C27.5122 37.9511 27.5252 38.1194 27.6893 38.2765L28.3102 38.8767C28.4706 39.0338 28.6514 39.06 28.8528 38.9552C31.8511 37.3565 35.5933 38.3606 38.8265 39.1291C40.7731 39.5891 42.9099 39.5947 44.8398 39.303C44.8991 39.2936 44.9598 39.2963 45.0181 39.3112C45.0763 39.3261 45.1309 39.3527 45.1786 39.3894C45.2262 39.4262 45.2659 39.4723 45.2952 39.525C45.3244 39.5776 45.3427 39.6357 45.3488 39.6957C45.6956 43.0989 45.649 46.4702 45.2089 49.8098C44.9815 51.5375 44.245 52.8259 42.9994 53.6748C42.7719 53.8319 42.7029 54.0394 42.7924 54.2975L43.1448 55.3128C43.2269 55.5446 43.3854 55.6232 43.6203 55.5484C46.1039 54.7406 48.4552 54.735 50.674 55.5316C51.0731 55.6737 51.3155 55.5372 51.4012 55.1221L51.5131 54.6228C51.5914 54.2526 51.4628 53.9814 51.1271 53.8094C49.6429 53.0577 48.72 51.7956 48.3582 50.0229C47.7951 47.2593 47.6609 44.3479 47.9555 41.2888C47.9965 40.855 48.1289 40.8251 48.3526 41.1991C50.0904 44.0749 52.5181 46.6516 55.6357 48.9291C56.5605 49.606 57.3175 50.4829 57.9068 51.56C58.0298 51.7844 58.0522 52.02 57.9739 52.2668C57.7278 53.0222 57.2355 53.6299 56.4971 54.0899C56.4139 54.1416 56.3478 54.217 56.307 54.3068C56.2662 54.3966 56.2526 54.4968 56.2678 54.5948C56.3349 55.0323 56.5475 55.3427 56.9055 55.526C57.0621 55.6082 57.2243 55.6232 57.3921 55.5708C60.1554 54.7443 62.7435 54.7088 65.1563 55.4642C65.3837 55.5353 65.5422 55.4605 65.6317 55.2399L66.0792 54.1628C66.1836 53.9123 66.1221 53.7159 65.8946 53.5738C63.9424 52.3565 63.8082 49.0974 63.7466 46.8984C63.6609 44.1011 63.6907 41.4571 63.8361 38.9665C63.989 36.3711 64.9642 34.4825 66.7617 33.3008C66.9481 33.1774 67.0003 33.0128 66.9183 32.8071C66.6759 32.1938 66.2321 31.9545 65.587 32.0891C63.2413 32.5865 61.015 32.5753 58.908 32.0554C58.7701 32.0218 58.6451 32.048 58.5333 32.134C58.0858 32.465 58.1081 33.1044 58.5221 33.4803C61.5986 36.2178 61.7049 40.8176 61.5035 44.6434Z" fill="#F8F7FF"/>
<path d="M28.3325 74.6994C27.5195 75.4922 26.7513 76.3374 26.0278 77.2349C25.8936 77.4032 25.7202 77.4705 25.5076 77.4369C24.9221 77.3509 24.3516 77.1527 23.7959 76.8423C23.5312 76.6927 23.533 76.5431 23.8015 76.3935C25.7817 75.309 27.1522 73.8243 27.9129 71.9395C28.2187 71.1766 28.0043 70.9765 27.2697 71.3393C23.9414 72.9773 21.5361 73.3699 18.1854 71.4346C17.3631 70.9634 16.4346 70.9802 15.7465 71.6871C15.5713 71.8628 15.3885 71.8722 15.1983 71.7151C14.3294 71.0046 13.4717 70.2417 12.6252 69.4264C12.3269 69.1422 12.1982 68.7869 12.2392 68.3606C12.8583 61.8422 16.0598 57.6201 21.8437 55.6941C26.0055 54.303 31.0343 55.0602 33.6913 58.7401C33.7725 58.8531 33.8252 58.9842 33.8446 59.122C33.8641 59.2598 33.8497 59.4002 33.8028 59.5308C33.7559 59.6614 33.6778 59.7783 33.5755 59.8713C33.4732 59.9642 33.3497 60.0304 33.2158 60.064L30.9615 60.6362C30.6316 60.7189 30.3447 60.9227 30.1572 61.2072C29.9698 61.4918 29.8955 61.8364 29.9491 62.1732C30.5364 65.8867 36.27 64.1926 36.3483 60.8269C36.4434 56.5412 33.2214 53.9271 29.3282 53.0688C24.9762 52.1096 20.1936 52.7435 16.938 55.5988C16.6397 55.8605 16.3227 56.0924 15.9871 56.2944C15.6738 56.4813 15.6011 56.4122 15.7689 56.0868C17.7659 52.132 19.5447 48.8392 20.5627 44.0655C22.1626 36.5374 20.5572 26.2494 13.3748 22.0254C10.4586 20.3089 7.57219 20.2004 4.71565 21.7C4.42851 21.8496 4.36324 21.7823 4.51987 21.4981C8.90164 13.4465 15.1014 7.53585 23.1191 3.76621C46.0759 -7.02103 73.3901 6.36344 79.0007 31.1859C81.3948 41.7767 79.4706 53.181 73.4069 62.2461C67.8766 70.5259 60.2131 76.0999 50.4166 78.9683C50.3805 78.978 50.3424 78.978 50.3063 78.9682C50.2701 78.9584 50.2374 78.9393 50.2116 78.9128C50.1858 78.8863 50.1678 78.8535 50.1595 78.8178C50.1513 78.7821 50.1532 78.745 50.1649 78.7103C50.6292 77.3022 51.0935 75.7877 50.9816 74.2843C50.646 69.834 48.9454 66.2906 45.8801 63.6541C44.1796 62.1882 42.2274 61.6758 40.0234 62.1171C37.234 62.6781 36.188 64.4058 36.8853 67.3004C37.4111 69.4993 40.8737 69.9537 40.7338 67.1096C40.6965 66.4215 40.6108 65.7484 40.4765 65.0902C40.451 64.9683 40.4568 64.8419 40.4933 64.7229C40.5299 64.6039 40.596 64.4961 40.6855 64.4097C40.775 64.3234 40.8849 64.2612 41.0049 64.2291C41.1249 64.1971 41.251 64.1961 41.3715 64.2263C43.0384 64.6452 44.5245 65.5988 45.8297 67.0872C48.6881 70.3576 49.0853 75.0865 47.9721 79.1422C47.9368 79.2694 47.8651 79.3837 47.7659 79.4713C47.6666 79.5589 47.544 79.616 47.4128 79.6358L44.9627 79.978C44.7166 80.0154 44.5506 79.9163 44.4649 79.6807C44.1516 78.8093 43.5363 78.2652 42.6189 78.0483C39.3634 77.2742 36.4378 77.0442 35.3918 73.2465C35.37 73.1696 35.3273 73.1003 35.2686 73.0463C35.2098 72.9923 35.1372 72.9557 35.059 72.9406C34.9807 72.9254 34.8998 72.9324 34.8252 72.9607C34.7506 72.9889 34.6854 73.0374 34.6366 73.1007C33.3557 74.8116 34.1332 77.9193 35.0729 79.5629C35.2706 79.9107 35.1718 80.0509 34.7765 79.9836L32.6956 79.6246C32.3339 79.561 32.1176 79.3479 32.0467 78.9851C31.7726 77.5378 31.8733 76.0569 32.002 74.6433C32.0766 73.8542 31.8192 73.7233 31.23 74.2506C30.1001 75.2678 29.2909 76.5693 28.8023 78.1549C28.6942 78.5064 28.4667 78.6242 28.1199 78.5083L27.3032 78.2447C26.949 78.1287 26.8632 77.91 27.0459 77.5883C27.568 76.6571 28.0528 75.7372 28.5003 74.8284C28.683 74.4544 28.6271 74.4114 28.3325 74.6994ZM61.5034 44.6432C61.4549 45.5595 61.289 45.5819 61.0056 44.7106C59.5904 40.3631 55.0091 39.4432 53.1296 35.6062C53.0249 35.3893 53.0011 35.1407 53.0625 34.905C53.2415 34.2206 53.963 33.5363 53.9015 32.8687C53.8344 32.1339 53.1408 31.9768 52.5366 32.1619C50.0139 32.9136 47.189 32.5939 44.5208 32.1507C42.5704 31.8291 42.1882 32.4611 43.3741 34.0467L43.8439 34.6862C43.95 34.8265 44.027 34.9867 44.0704 35.1573C44.1138 35.328 44.1227 35.5058 44.0967 35.6803C44.0706 35.8547 44.0101 36.0224 43.9187 36.1734C43.8273 36.3244 43.7068 36.4558 43.5643 36.5598C41.9234 37.7603 40.3572 37.8145 38.8655 36.7225C36.8853 35.264 37.0755 30.8156 37.6293 28.7737C38.0712 27.1301 39.5312 26.9562 40.773 27.7808C41.8134 28.4764 42.8371 29.0991 43.8439 29.6488C46.0031 30.8268 49.0797 30.3612 50.2768 28.0501C50.7466 27.1413 50.8865 26.0063 50.6963 24.6451C50.659 24.387 50.5322 24.3309 50.3159 24.4768C46.2325 27.2591 44.1236 21.6832 40.4485 23.5568C39.3186 24.1327 38.3453 24.8769 37.5286 25.7894C37.5048 25.8173 37.4734 25.8375 37.4381 25.8474C37.4029 25.8573 37.3656 25.8565 37.3308 25.8451C37.296 25.8337 37.2654 25.8122 37.2429 25.7833C37.2203 25.7544 37.2069 25.7194 37.2042 25.6829C37.014 23.2763 36.9077 17.8687 39.9171 17.1507C42.4791 16.5336 44.0789 19.0804 43.8831 21.3915C43.8495 21.7954 44.0118 21.9039 44.3698 21.7169C46.4618 20.6324 48.3991 20.0471 50.1817 19.9611C50.5546 19.9424 50.6665 19.761 50.5173 19.4169C48.6546 15.1032 43.1447 14.5703 39.1732 15.4005C35.6939 16.1297 32.0747 17.0497 28.6737 15.7651C28.0584 15.5295 27.5438 15.8436 27.4095 16.4663C27.3886 16.5546 27.3894 16.6467 27.4118 16.7346C27.4342 16.8226 27.4776 16.9037 27.5382 16.9712C28.9403 18.5942 29.7552 20.9521 29.9826 24.0449C30.3518 29.0598 30.6203 33.9402 27.65 37.7715C27.5121 37.951 27.5251 38.1193 27.6892 38.2764L28.3101 38.8766C28.4705 39.0337 28.6513 39.0598 28.8527 38.9551C31.8509 37.3564 35.5932 38.3605 38.8264 39.129C40.773 39.589 42.9098 39.5946 44.8396 39.3029C44.899 39.2935 44.9597 39.2962 45.0179 39.3111C45.0762 39.3259 45.1308 39.3526 45.1785 39.3893C45.2261 39.4261 45.2658 39.4722 45.2951 39.5249C45.3243 39.5775 45.3426 39.6356 45.3487 39.6956C45.6955 43.0987 45.6489 46.4701 45.2088 49.8097C44.9813 51.5374 44.2448 52.8258 42.9993 53.6747C42.7718 53.8317 42.7028 54.0393 42.7923 54.2973L43.1447 55.3127C43.2268 55.5445 43.3853 55.6231 43.6202 55.5483C46.1038 54.7405 48.4551 54.7349 50.6739 55.5314C51.0729 55.6736 51.3153 55.5371 51.4011 55.122L51.513 54.6227C51.5913 54.2525 51.4626 53.9813 51.127 53.8093C49.6428 53.0576 48.7198 51.7955 48.3581 50.0228C47.795 47.2592 47.6608 44.3478 47.9554 41.2887C47.9964 40.8549 48.1288 40.825 48.3525 41.199C50.0903 44.0748 52.518 46.6515 55.6356 48.929C56.5604 49.6059 57.3174 50.4828 57.9066 51.5599C58.0297 51.7842 58.0521 52.0198 57.9738 52.2667C57.7276 53.0221 57.2354 53.6298 56.497 54.0898C56.4138 54.1415 56.3477 54.2169 56.3069 54.3067C56.2661 54.3965 56.2525 54.4967 56.2677 54.5947C56.3348 55.0322 56.5474 55.3426 56.9054 55.5258C57.062 55.6081 57.2242 55.6231 57.392 55.5707C60.1553 54.7442 62.7434 54.7087 65.1561 55.4641C65.3836 55.5352 65.5421 55.4604 65.6316 55.2398L66.0791 54.1627C66.1835 53.9122 66.122 53.7158 65.8945 53.5737C63.9423 52.3564 63.8081 49.0973 63.7465 46.8983C63.6607 44.101 63.6906 41.457 63.836 38.9663C63.9889 36.371 64.9641 34.4824 66.7616 33.3007C66.948 33.1773 67.0002 33.0127 66.9182 32.807C66.6758 32.1937 66.232 31.9544 65.5869 32.089C63.2412 32.5864 61.0149 32.5752 58.9079 32.0553C58.7699 32.0217 58.645 32.0479 58.5331 32.1339C58.0856 32.4648 58.108 33.1043 58.522 33.4802C61.5985 36.2177 61.7048 40.8175 61.5034 44.6432ZM28.4388 65.2416C26.5033 64.1197 27.3536 61.4776 27.9689 59.8845C28.2653 59.1216 27.9465 58.3026 27.3088 57.8314C26.1789 56.9974 25.0042 57.018 23.7848 57.8931C19.6733 60.8493 24.5343 66.616 28.2262 66.2289C29.3077 66.1167 29.3785 65.7876 28.4388 65.2416ZM27.6109 67.6482C23.2701 68.0745 22.2409 65.0509 20.1824 62.1844C18.8231 60.2828 16.7926 61.7637 16.1884 63.4017C15.327 65.7577 16.8653 68.1923 18.9182 69.2749C21.3459 70.5539 23.9209 70.5951 26.6432 69.3983C27.2734 69.1216 27.7022 68.6785 27.9297 68.0689C27.948 68.0188 27.9535 67.9649 27.9457 67.9122C27.9379 67.8595 27.9171 67.8097 27.8852 67.7677C27.8533 67.7256 27.8113 67.6925 27.7634 67.6716C27.7154 67.6507 27.6629 67.6426 27.6109 67.6482ZM30.7769 68.2147C30.6427 67.8258 30.4879 67.4593 30.3127 67.1152C30.2795 67.0496 30.228 66.9949 30.1646 66.9579C30.1011 66.9209 30.0283 66.9031 29.955 66.9066C29.8816 66.9102 29.8109 66.935 29.7513 66.978C29.6917 67.0209 29.6457 67.0803 29.619 67.1489C28.1423 70.9859 34.48 73.3194 35.1904 70.6156C35.2613 70.3538 35.1606 70.2342 34.8884 70.2566C32.9921 70.4081 31.4818 70.279 30.7769 68.2147ZM42.7532 69.8864C41.1534 71.3336 38.7592 73.1399 36.7958 70.9802C36.764 70.9453 36.7224 70.9208 36.6764 70.9099C36.6305 70.899 36.5823 70.9023 36.5383 70.9192C36.4942 70.9362 36.4562 70.966 36.4293 71.005C36.4024 71.0439 36.3879 71.09 36.3875 71.1373C36.3483 74.9799 43.1279 78.1325 45.4382 74.2282C46.4842 72.4556 45.8857 70.1164 43.6873 69.6396C43.5229 69.6032 43.3523 69.6066 43.1898 69.6495C43.0273 69.6925 42.8776 69.7737 42.7532 69.8864Z" fill="#B21B24"/>
<path d="M10.0017 28.8411C10.5387 27.7304 9.90102 26.3954 8.65921 26.1261C7.16568 25.8063 6.5224 26.9058 5.96862 28.1287C5.60316 28.9328 5.27313 28.9178 4.97852 28.0838C4.32965 26.2289 4.8219 24.7349 6.45527 23.6018C7.92829 22.5808 9.55794 22.6033 11.3442 23.6691C20.8088 29.3348 20.2607 42.4893 16.3618 51.3244C14.1802 56.2664 11.4841 61.0177 10.3038 66.4029C10.2292 66.7507 10.0744 66.79 9.83949 66.5207C0.514706 55.6718 -2.29336 41.4795 1.89077 27.8034C2.01756 27.3808 2.17419 27.3696 2.36065 27.7697C3.16987 29.5124 4.39304 30.5259 6.03015 30.8101C7.88727 31.1317 9.21113 30.4754 10.0017 28.8411ZM11.7134 29.5536C11.1205 31.2252 10.2311 33.2727 8.56971 34.0244C7.10974 34.6863 5.47077 34.0132 4.09471 33.441C3.99195 33.3989 3.87988 33.385 3.76997 33.4006C3.66007 33.4162 3.55627 33.4608 3.46921 33.5298C3.38214 33.5989 3.31494 33.6899 3.27446 33.7935C3.23399 33.8972 3.2217 34.0098 3.23886 34.1198C3.47753 35.5857 4.24947 36.7095 5.55468 37.4911C7.82574 38.8486 10.7848 37.0648 11.8756 34.95C12.7259 33.3008 12.9384 31.5188 12.5133 29.604C12.3045 28.6579 12.0378 28.6411 11.7134 29.5536ZM14.6166 33.3737C14.363 35.883 13.1323 37.8333 10.9247 39.2245C9.12349 40.3651 7.42672 41.1785 5.83437 41.6646C3.82621 42.2873 4.76037 45.4623 5.7113 46.3935C6.57833 47.235 8.36274 46.8984 9.31368 46.3991C13.9341 43.9702 15.4556 38.3326 14.8179 33.3681C14.7434 32.7847 14.6762 32.7865 14.6166 33.3737ZM9.78915 58.6505C13.6097 51.8517 17.9225 46.4945 16.882 38.1587C16.7515 37.1003 16.634 37.1022 16.5296 38.1643C16.2052 41.4552 14.803 44.5293 12.3231 47.3864C8.79906 51.4534 4.07233 55.3408 8.50818 61.0738C8.54017 61.115 8.58323 61.1459 8.63234 61.163C8.68145 61.18 8.7346 61.1825 8.78559 61.1702C8.83658 61.1579 8.88332 61.1312 8.92037 61.0933C8.95741 61.0553 8.98324 61.0077 8.99484 60.956C9.18875 60.0173 9.45352 59.2488 9.78915 58.6505Z" fill="#B21B24"/>
</svg>
