<svg width="57" height="56" viewBox="0 0 57 56" fill="none" xmlns="http://www.w3.org/2000/svg">
<path d="M44.1506 32.5338L35.5353 28.2262C35.1961 28.0572 34.8184 27.9806 34.4403 28.0043C34.0621 28.0279 33.6969 28.1509 33.3814 28.3608L29.4264 30.9992C27.6109 30.0012 26.1168 28.5071 25.1187 26.6915L27.7572 22.7365C27.9671 22.4211 28.0901 22.0559 28.1137 21.6777C28.1373 21.2995 28.0608 20.9218 27.8918 20.5827L23.5841 11.9673C23.4056 11.6067 23.1296 11.3034 22.7874 11.0916C22.4453 10.8799 22.0507 10.7682 21.6483 10.7692C18.7922 10.7692 16.053 11.9038 14.0333 13.9235C12.0137 15.9431 10.8791 18.6823 10.8791 21.5385C10.8862 27.8199 13.3847 33.842 17.8263 38.2836C22.2679 42.7252 28.29 45.2236 34.5714 45.2308C35.9856 45.2308 37.386 44.9522 38.6926 44.411C39.9992 43.8698 41.1864 43.0766 42.1864 42.0765C43.1864 41.0765 43.9797 39.8893 44.5209 38.5827C45.0621 37.2762 45.3406 35.8758 45.3406 34.4615C45.3409 34.0614 45.2297 33.6691 45.0196 33.3286C44.8094 32.9881 44.5085 32.7129 44.1506 32.5338ZM34.5714 40.9231C29.432 40.9174 24.5048 38.8732 20.8707 35.2392C17.2366 31.6051 15.1925 26.6778 15.1868 21.5385C15.1864 20.0446 15.7036 18.5967 16.6505 17.4412C17.5974 16.2857 18.9154 15.494 20.3803 15.2008L23.471 21.3931L20.8406 25.3077C20.6441 25.6025 20.5233 25.9413 20.489 26.294C20.4547 26.6467 20.508 27.0024 20.6441 27.3296C22.1851 30.9922 25.0988 33.9059 28.7614 35.4469C29.0896 35.5891 29.448 35.6472 29.8043 35.6162C30.1606 35.5852 30.5035 35.466 30.8022 35.2692L34.7356 32.6469L40.9279 35.7377C40.6325 37.2042 39.8373 38.5228 38.6781 39.4685C37.5189 40.4141 36.0674 40.9282 34.5714 40.9231ZM28.1099 6.66819e-07C23.2757 -0.0010542 18.5237 1.24947 14.3162 3.62985C10.1088 6.01023 6.58931 9.43937 4.10033 13.5835C1.61136 17.7276 0.237706 22.4456 0.11307 27.2781C-0.0115671 32.1106 1.11706 36.8931 3.3891 41.16L0.333333 50.3273C0.0802146 51.0863 0.0434812 51.9008 0.22725 52.6795C0.411019 53.4582 0.808028 54.1703 1.37378 54.7361C1.93953 55.3018 2.65166 55.6989 3.43037 55.8826C4.20907 56.0664 5.02356 56.0297 5.78256 55.7765L14.9499 52.7208C18.705 54.7181 22.8658 55.8336 27.1165 55.9828C31.3671 56.1319 35.5959 55.3108 39.4818 53.5816C43.3677 51.8524 46.8086 49.2607 49.5434 46.0031C52.2781 42.7456 54.2347 38.9079 55.2648 34.7812C56.2949 30.6546 56.3713 26.3475 55.4883 22.1869C54.6053 18.0263 52.786 14.1215 50.1686 10.769C47.5511 7.41649 44.2043 4.70432 40.3822 2.83838C36.5601 0.972431 32.3631 0.00174524 28.1099 6.66819e-07ZM28.1099 51.6923C23.9448 51.6951 19.8528 50.5983 16.2476 48.5127C15.9836 48.3596 15.6901 48.2644 15.3866 48.2333C15.083 48.2022 14.7763 48.2359 14.4868 48.3323L4.41756 51.6923L7.77487 41.6231C7.87165 41.3337 7.90585 41.0271 7.87522 40.7236C7.84459 40.4201 7.74981 40.1265 7.59718 39.8623C4.98556 35.3471 3.93701 30.0962 4.61418 24.9242C5.29135 19.7522 7.65639 14.9483 11.3424 11.2576C15.0284 7.56691 19.8294 5.1958 25.0005 4.5121C30.1716 3.8284 35.4238 4.87032 39.9424 7.47623C44.4609 10.0821 47.9932 14.1064 49.9912 18.9246C51.9893 23.7429 52.3414 29.0859 50.993 34.1247C49.6445 39.1635 46.671 43.6165 42.5335 46.7929C38.396 49.9693 33.326 51.6915 28.1099 51.6923Z" fill="#F8F7FF"/>
</svg>
